# xmcd CD database file
#
# Track frame offsets:
#	150
#	20904
#	43276
#	65874
#	85541
#	103821
#	124395
#	140621
#	154126
#	179557
#	200971
#	220185
#	249624
#	267953
#	287105
#
# Disc length: 4044 seconds
#
# Revision: 2
# Processed by: cddbd v1.4b41PL1 Copyright (c) Steve Scherf et al.
# Submitted via: Feurio! 1.52 - http://www.feurio.com
#
DISCID=fa0fca0f
DTITLE=MONICA NARANJO - MINAGE
DYEAR=1900
DGENRE=
TTITLE0=Ahora, Ahora
TTITLE1=Mónica Naranjo - Sobreviviré
TTITLE2=Perra enamorada
TTITLE3=Mónica Naranjo - Enamorada (versión spanglish)
TTITLE4=Mónica Naranjo - Que imposible
TTITLE5=Mónica Naranjo - Amando locamente
TTITLE6=Mónica Naranjo - If you leave me now
TTITLE7=Mónica Naranjo - Inmensidad
TTITLE8=Abismo
TTITLE9=Mónica Naranjo - El se encuentra entre tu y yo
TTITLE10=Simpre fuiste mio
TTITLE11=Mi vida por un hombre
TTITLE12=Mónica Naranjo - Sobreviviré (The groove brothe
TTITLE13=Monica Naranjo Minage - Enamorada (version en español)
TTITLE14=Seguire sin ti
EXTD=
EXTT0=
EXTT1=, AG# 88074015
EXTT2=, AG# A36E9C7F
EXTT3=, AG# 4285C6D3
EXTT4=, AG# E60FA3E5
EXTT5=, AG# 2B32B7C8
EXTT6=, AG# 2C69AB5E
EXTT7=, AG# F67D8138
EXTT8=
EXTT9=, AG# 3EB0D3DE
EXTT10=
EXTT11=
EXTT12=, AG# 2A0AB29A
EXTT13=
EXTT14=
PLAYORDER=
